[img]http://leetleech.org/images/25157802288982634597.jpg[/img]
 
http://www.imdb.com/title/tt1038011/

User Rating:
4.4/10   378 votes 

Director:
Michael Staininger

Writers (WGA):
John Shirley (screenplay)
Edgar Allan Poe (short story "Ligeia")

Genre:
Horror | Thriller 

Plot:
Successful writer and scholar Jonathan Merrick falls under 
the spell of the irresistible, bewitchingly beautiful Ligeia...

Video
ID                               : 0
Format                           : MPEG-4 Visual
Format profile                   : Advanced Simple@L5
Format settings, BVOP            : Yes
Format settings, QPel            : No
Format settings, GMC             : No warppoints
Format settings, Matrix          : Default (H.263)
Muxing mode                      : Packed bitstream
Codec ID                         : XVID
Codec ID/Hint                    : XviD
Duration                         : 1h 29mn
Bit rate                         : 964 Kbps
Width                            : 624 pixels
Height                           : 336 pixels
Display aspect ratio             : 1.857
Frame rate                       : 23.976 fps
Color space                      : YUV
Chroma subsampling               : 4:2:0
Bit depth                        : 8 bits
Scan type                        : Progressive
Bits/(Pixel*Frame)               : 0.192
Stream size                      : 616 MiB (88%)
Writing library                  : XviD 1.2.1 (UTC 2008-12-04)

Audio
ID                               : 1
Format                           : MPEG Audio
Format version                   : Version 1
Format profile                   : Layer 3
Mode                             : Joint stereo
Codec ID                         : 55
Codec ID/Hint                    : MP3
Duration                         : 1h 29mn
Bit rate mode                    : Constant
Bit rate                         : 128 Kbps
Channel(s)                       : 2 channels
Sampling rate                    : 48.0 KHz
Video delay                      : 200ms
Stream size                      : 81.8 MiB (12%)
Alignment                        : Split accross interleaves
Interleave, duration             : 42 ms (1.00 video frame)
Interleave, preload duration     : 500 ms

[img]http://leetleech.org/images/18184724272581757254.png[/img]
[img]http://leetleech.org/images/69238722424853982413.png[/img]
[img]http://leetleech.org/images/99657204425306143184.png[/img]
[img]http://leetleech.org/images/03178051570606143480.png[/img]
[img]http://leetleech.org/images/60372635506634658318.png[/img]
[img]http://leetleech.org/images/89088164580758311561.png[/img]

Greets out to my friends at 1337x, extratorrent, noir, blackjesus